<svg width="46" height="47" viewBox="0 0 46 47" fill="none" xmlns="http://www.w3.org/2000/svg">
<rect x="0.5" y="16.6299" width="30" height="30" rx="15" fill="#E7C873"/>
<g clip-path="url(#clip0_2296_3033)">
<path d="M28.0001 32.2464H17.1501C16.5278 32.2464 16.0223 32.0325 15.6334 31.6047C15.2445 31.1769 15.0501 30.6908 15.0501 30.1464V15.563L26.0167 5.87971C26.5612 5.41304 27.2223 5.17971 28.0001 5.17971C28.7778 5.17971 29.439 5.41304 29.9834 5.87971L43.8667 18.1297C44.0223 18.2853 44.2167 18.3436 44.4501 18.3047C44.6834 18.2658 44.8778 18.1686 45.0334 18.013C45.189 17.8575 45.2473 17.663 45.2084 17.4297C45.1695 17.1964 45.0723 17.0019 44.9167 16.8464L42.5834 14.863V6.57971C42.5834 5.41304 42.1556 4.40193 41.3001 3.54637C40.4445 2.69082 39.4334 2.28248 38.2667 2.32137C37.1001 2.36026 36.1084 2.78804 35.2917 3.60471C34.4751 4.42137 34.0278 5.41304 33.9501 6.57971V7.27971L31.0334 4.71304C30.1778 3.93526 29.1667 3.54637 28.0001 3.54637C26.8334 3.54637 25.8223 3.93526 24.9667 4.71304L11.0834 16.8464C10.8501 17.0019 10.7334 17.1964 10.7334 17.4297C10.7334 17.663 10.8112 17.8575 10.9667 18.013C11.1223 18.1686 11.3167 18.2658 11.5501 18.3047C11.7834 18.3436 11.9778 18.2853 12.1334 18.1297L13.4167 17.0797V30.1464C13.4167 31.1575 13.7862 32.0325 14.5251 32.7714C15.264 33.5103 16.139 33.8797 17.1501 33.8797H28.0001C28.2334 33.8797 28.4278 33.8019 28.5834 33.6464C28.739 33.4908 28.8167 33.2964 28.8167 33.063C28.8167 32.8297 28.739 32.6353 28.5834 32.4797C28.4278 32.3242 28.2334 32.2464 28.0001 32.2464ZM35.5834 6.57971C35.6612 5.80193 35.9528 5.16026 36.4584 4.65471C36.964 4.14915 37.5862 3.91582 38.3251 3.95471C39.064 3.9936 39.6862 4.26582 40.1917 4.77137C40.6973 5.27693 40.9501 5.87971 40.9501 6.57971V13.3464L35.5834 8.67971V6.57971ZM28.0001 10.5464C26.9112 10.5464 25.9778 10.9353 25.2001 11.713C24.4223 12.4908 24.0334 13.4242 24.0334 14.513C24.0334 15.6019 24.4223 16.5353 25.2001 17.313C25.9778 18.0908 26.9112 18.4797 28.0001 18.4797C29.089 18.4797 30.0223 18.0908 30.8001 17.313C31.5778 16.5353 31.9667 15.6019 31.9667 14.513C31.9667 13.4242 31.5778 12.4908 30.8001 11.713C30.0223 10.9353 29.089 10.5464 28.0001 10.5464ZM30.3334 14.513C30.3334 15.213 30.1001 15.7769 29.6334 16.2047C29.1667 16.6325 28.6223 16.8464 28.0001 16.8464C27.3778 16.8464 26.8334 16.6325 26.3667 16.2047C25.9001 15.7769 25.6667 15.2325 25.6667 14.5714C25.6667 13.9103 25.9001 13.3464 26.3667 12.8797C26.8334 12.413 27.3778 12.1797 28.0001 12.1797C28.6223 12.1797 29.1667 12.413 29.6334 12.8797C30.1001 13.3464 30.3334 13.8908 30.3334 14.513ZM45.0334 32.5964L42.2334 29.6797C42.9334 28.6686 43.2834 27.5408 43.2834 26.2964C43.2834 24.7408 42.7195 23.4186 41.5917 22.3297C40.464 21.2408 39.1223 20.6964 37.5667 20.6964C36.0112 20.6964 34.6695 21.2408 33.5417 22.3297C32.414 23.4186 31.8501 24.7603 31.8501 26.3547C31.8501 27.9492 32.414 29.2908 33.5417 30.3797C34.6695 31.4686 36.0112 32.013 37.5667 32.013C38.889 32.013 40.0556 31.6242 41.0667 30.8464L43.7501 33.6464C43.9056 33.8019 44.1001 33.8992 44.3334 33.938C44.5667 33.9769 44.7806 33.9186 44.9751 33.763C45.1695 33.6075 45.2667 33.413 45.2667 33.1797C45.2667 32.9464 45.189 32.7519 45.0334 32.5964ZM37.5667 30.3797C36.4778 30.3797 35.5251 29.9908 34.7084 29.213C33.8917 28.4353 33.4834 27.4825 33.4834 26.3547C33.4834 25.2269 33.8917 24.2742 34.7084 23.4964C35.5251 22.7186 36.4973 22.3297 37.6251 22.3297C38.7528 22.3297 39.7056 22.7186 40.4834 23.4964C41.2612 24.2742 41.6501 25.2269 41.6501 26.3547C41.6501 27.4825 41.2612 28.4353 40.4834 29.213C39.7056 29.9908 38.7334 30.3797 37.5667 30.3797Z" fill="#1A1A1A"/>
</g>
<defs>
<clipPath id="clip0_2296_3033">
<rect width="35" height="35" fill="white" transform="matrix(1 0 0 -1 10.5 35.6299)"/>
</clipPath>
</defs>
</svg>
