<svg width="61" height="61" viewBox="0 0 61 61" fill="none" xmlns="http://www.w3.org/2000/svg">
<path d="M18.79 43.3899C18.79 42.8566 18.99 42.3899 19.39 41.9899C19.79 41.5899 20.19 41.3899 20.59 41.3899H41.39C41.79 41.3899 42.19 41.5899 42.59 41.9899C42.99 42.3899 43.19 42.8566 43.19 43.3899C43.19 43.9232 42.99 44.3566 42.59 44.6899C42.19 45.0232 41.79 45.1899 41.39 45.1899H20.59C20.19 45.1899 19.79 45.0232 19.39 44.6899C18.99 44.3566 18.79 43.9232 18.79 43.3899ZM38.99 4.78989C36.7234 2.92323 34.0567 1.98989 30.99 1.98989C27.9234 1.98989 25.2567 2.92323 22.99 4.78989L7.99004 16.3899C6.39004 17.7232 5.12337 19.2566 4.19004 20.9899C3.25671 22.7232 2.79004 24.5899 2.79004 26.5899V45.3899C2.79004 47.6566 3.39004 49.7899 4.59004 51.7899C5.79004 53.7899 7.39004 55.3899 9.39004 56.5899C11.39 57.7899 13.59 58.3899 15.99 58.3899H45.99C48.39 58.3899 50.59 57.7899 52.59 56.5899C54.59 55.3899 56.19 53.7899 57.39 51.7899C58.59 49.7899 59.19 47.6566 59.19 45.3899V26.5899C59.19 24.5899 58.7234 22.7232 57.79 20.9899C56.8567 19.2566 55.59 17.7232 53.99 16.3899L38.99 4.78989ZM25.19 7.78989C26.9234 6.45656 28.8567 5.78989 30.99 5.78989C33.1234 5.78989 35.0567 6.45656 36.79 7.78989L51.79 19.3899C52.8567 20.3232 53.7234 21.4232 54.39 22.6899C55.0567 23.9566 55.39 25.2566 55.39 26.5899V45.3899C55.39 47.9232 54.4567 50.0899 52.59 51.8899C50.7234 53.6899 48.5234 54.5899 45.99 54.5899H15.99C13.4567 54.5899 11.2567 53.6899 9.39004 51.8899C7.52337 50.0899 6.59004 47.9232 6.59004 45.3899V26.5899C6.59004 25.2566 6.92337 23.9566 7.59004 22.6899C8.25671 21.4232 9.12337 20.3232 10.19 19.3899L25.19 7.78989Z" fill="#1A1A1A"/>
</svg>
