<svg width="61" height="61" viewBox="0 0 61 61" fill="none" xmlns="http://www.w3.org/2000/svg">
<path d="M30.3199 56.5898C29.5199 56.5898 28.7865 56.3898 28.1199 55.9898L19.3199 50.7898C15.5865 48.6565 12.5532 45.7232 10.2199 41.9898C7.88655 38.2565 6.51988 34.2565 6.11988 29.9898L4.91988 14.9898C4.78655 13.9232 4.98655 12.9565 5.51988 12.0898C6.05322 11.2232 6.78655 10.6565 7.71988 10.3898C9.18655 9.98984 10.5199 9.38984 11.7199 8.58984C13.1865 7.65651 14.5199 6.45651 15.7199 4.98984C16.5199 3.92318 17.6532 3.38984 19.1199 3.38984H41.5199C42.9865 3.38984 44.1199 3.92318 44.9199 4.98984C46.1199 6.45651 47.4532 7.65651 48.9199 8.58984C50.1199 9.38984 51.4532 9.98984 52.9199 10.3898C53.8532 10.6565 54.5865 11.2232 55.1199 12.0898C55.6532 12.9565 55.9199 13.8565 55.9199 14.7898L54.5199 29.7898C54.2532 34.1898 52.9532 38.2232 50.6199 41.8898C48.2865 45.5565 45.2532 48.5232 41.5199 50.7898L32.7199 55.9898C31.9199 56.3898 31.1199 56.5898 30.3199 56.5898ZM19.1199 6.98984C18.8532 6.98984 18.6532 7.05651 18.5199 7.18984C17.1865 8.92318 15.6532 10.4565 13.9199 11.7898C12.4532 12.7232 10.8532 13.3898 9.11988 13.7898C8.71988 13.9232 8.51988 14.1898 8.51988 14.5898L9.91988 29.5898C10.1865 33.3232 11.3199 36.7898 13.3199 39.9898C15.3199 43.1898 17.9199 45.7232 21.1199 47.5898L29.9199 52.7898C30.1865 52.9232 30.4532 52.9232 30.7199 52.7898L39.5199 47.5898C42.7199 45.7232 45.3199 43.2232 47.3199 40.0898C49.3199 36.9565 50.4532 33.4565 50.7199 29.5898L52.1199 14.5898C52.1199 14.3232 51.9199 14.1232 51.5199 13.9898C49.7865 13.5898 48.1865 12.8565 46.7199 11.7898C44.9865 10.5898 43.4532 9.12318 42.1199 7.38984C41.9865 7.25651 41.7865 7.18984 41.5199 7.18984L19.1199 6.98984ZM28.5199 35.7898C27.9865 35.7898 27.5199 35.5898 27.1199 35.1898L22.1199 30.1898C21.8532 29.9232 21.7532 29.5565 21.8199 29.0898C21.8865 28.6232 22.0865 28.2232 22.4199 27.8898C22.7532 27.5565 23.1199 27.3565 23.5199 27.2898C23.9199 27.2232 24.3199 27.3232 24.7199 27.5898L28.5199 31.3898L37.1199 22.5898C37.5199 22.4565 37.9199 22.3898 38.3199 22.3898C38.7199 22.3898 39.0865 22.5565 39.4199 22.8898C39.7532 23.2232 39.9532 23.5898 40.0199 23.9898C40.0865 24.3898 39.9865 24.7898 39.7199 25.1898L29.7199 35.1898C29.4532 35.5898 29.0532 35.7898 28.5199 35.7898Z" fill="#1A1A1A"/>
</svg>
