<svg width="61" height="61" viewBox="0 0 61 61" fill="none" xmlns="http://www.w3.org/2000/svg">
<g clip-path="url(#clip0_2225_1436)">
<path d="M59.6605 43.59L57.8608 41.99V34.99C57.8608 33.79 57.4276 32.7567 56.5611 31.89C55.6945 31.0234 54.6947 30.59 53.5616 30.59C52.4284 30.59 51.4619 30.9234 50.662 31.59C49.8622 32.2567 49.3289 33.1234 49.0623 34.19L47.4626 32.79C46.6627 31.99 45.6629 31.59 44.4631 31.59C43.2633 31.59 42.1968 31.99 41.2636 32.79L29.0656 43.59C28.799 43.8567 28.6657 44.19 28.6657 44.59C28.6657 44.99 28.7657 45.3234 28.9657 45.59C29.1656 45.8567 29.4656 45.99 29.8655 45.99C30.2654 45.99 30.5987 45.9234 30.8653 45.79V55.59C30.8653 56.79 31.2653 57.79 32.0651 58.59C32.865 59.39 33.7982 59.79 34.8647 59.79H53.8615C55.0613 59.79 56.0278 59.39 56.761 58.59C57.4942 57.79 57.8608 56.79 57.8608 55.59V45.79C58.2608 45.9234 58.6274 45.99 58.9607 45.99C59.2939 45.99 59.5939 45.8234 59.8605 45.49C60.1271 45.1567 60.2271 44.8234 60.1605 44.49C60.0938 44.1567 59.9272 43.8567 59.6605 43.59ZM46.8627 56.99H42.2634V53.59C42.2634 53.0567 42.4634 52.59 42.8633 52.19C43.2633 51.79 43.7299 51.59 44.2631 51.59H44.863C45.3963 51.59 45.8628 51.79 46.2628 52.19C46.6627 52.59 46.8627 53.0567 46.8627 53.59V56.99ZM55.0613 55.59C55.0613 55.99 54.9613 56.3234 54.7614 56.59C54.5614 56.8567 54.2614 56.99 53.8615 56.99H49.6622V53.59C49.6622 52.2567 49.1956 51.1234 48.2624 50.19C47.3293 49.2567 46.1961 48.79 44.863 48.79H44.2631C42.93 48.79 41.7969 49.2567 40.8637 50.19C39.9305 51.1234 39.4639 52.2567 39.4639 53.59V56.99H34.8647C34.5981 56.99 34.3314 56.8567 34.0648 56.59C33.7982 56.3234 33.6649 55.99 33.6649 55.59V43.19L43.0633 34.99C43.4632 34.59 43.8965 34.39 44.3631 34.39C44.8297 34.39 45.2629 34.59 45.6629 34.99L55.0613 43.19V55.59ZM55.0613 34.99V39.59L51.8618 36.59V34.99C51.8618 34.59 51.9952 34.2234 52.2618 33.89C52.5284 33.5567 52.895 33.3567 53.3616 33.29C53.8282 33.2234 54.2281 33.3567 54.5614 33.69C54.8947 34.0234 55.0613 34.4567 55.0613 34.99ZM44.4631 37.79C43.2633 37.79 42.2634 38.2234 41.4636 39.09C40.6637 39.9567 40.2638 40.9567 40.2638 42.09C40.2638 43.2234 40.6637 44.19 41.4636 44.99C42.2634 45.79 43.23 46.19 44.3631 46.19C45.4962 46.19 46.4961 45.79 47.3626 44.99C48.2291 44.19 48.6624 43.2234 48.6624 42.09C48.6624 40.9567 48.2291 39.9567 47.3626 39.09C46.4961 38.2234 45.5296 37.79 44.4631 37.79ZM45.6629 41.99C45.6629 42.39 45.5629 42.7234 45.3629 42.99C45.163 43.2567 44.863 43.39 44.4631 43.39C44.0631 43.39 43.7299 43.2567 43.4632 42.99C43.1966 42.7234 43.0633 42.39 43.0633 41.99C43.0633 41.59 43.1966 41.2567 43.4632 40.99C43.7299 40.7234 44.0631 40.59 44.4631 40.59C44.863 40.59 45.163 40.7234 45.3629 40.99C45.5629 41.2567 45.6629 41.59 45.6629 41.99ZM26.2661 56.79H8.46908C7.26928 56.79 6.20279 56.3567 5.26961 55.49C4.33643 54.6234 3.86985 53.59 3.86985 52.39V7.99004C3.86985 6.79004 4.33643 5.72337 5.26961 4.79004C6.20279 3.8567 7.26928 3.39004 8.46908 3.39004H49.0623C50.3954 3.39004 51.4952 3.8567 52.3618 4.79004C53.2283 5.72337 53.6615 6.79004 53.6615 7.99004V25.79C53.6615 26.19 53.7949 26.5234 54.0615 26.79C54.3281 27.0567 54.6614 27.19 55.0613 27.19C55.4612 27.19 55.7945 27.0567 56.0611 26.79C56.3278 26.5234 56.4611 26.19 56.4611 25.79V7.99004C56.4611 5.99004 55.7279 4.2567 54.2614 2.79004C52.795 1.32337 51.062 0.590038 49.0623 0.590038H8.46908C6.46941 0.590038 4.73637 1.32337 3.26995 2.79004C1.80352 4.2567 1.07031 5.99004 1.07031 7.99004V52.39C1.07031 54.39 1.80352 56.1234 3.26995 57.59C4.73637 59.0567 6.46941 59.79 8.46908 59.79H26.2661C26.666 59.79 27.0327 59.6234 27.3659 59.29C27.6992 58.9567 27.8658 58.6234 27.8658 58.29C27.8658 57.9567 27.6992 57.6234 27.3659 57.29C27.0327 56.9567 26.666 56.79 26.2661 56.79ZM43.6632 14.79C43.6632 14.39 43.5299 14.0567 43.2633 13.79C42.9967 13.5234 42.6634 13.39 42.2634 13.39H14.4681C14.0681 13.39 13.7349 13.5234 13.4682 13.79C13.2016 14.0567 13.0683 14.39 13.0683 14.79C13.0683 15.19 13.2016 15.5234 13.4682 15.79C13.7349 16.0567 14.0681 16.19 14.4681 16.19H42.2634C42.6634 16.19 42.9967 16.0567 43.2633 15.79C43.5299 15.5234 43.6632 15.19 43.6632 14.79ZM36.8643 25.59C36.8643 25.3234 36.731 25.0234 36.4644 24.69C36.1978 24.3567 35.8645 24.19 35.4646 24.19H14.4681C14.0681 24.19 13.7349 24.3567 13.4682 24.69C13.2016 25.0234 13.0683 25.3567 13.0683 25.69C13.0683 26.0234 13.2016 26.3567 13.4682 26.69C13.7349 27.0234 14.0681 27.19 14.4681 27.19H35.4646C35.8645 27.19 36.1978 27.0234 36.4644 26.69C36.731 26.3567 36.8643 25.99 36.8643 25.59ZM14.4681 35.19C14.0681 35.19 13.7349 35.3234 13.4682 35.59C13.2016 35.8567 13.0683 36.19 13.0683 36.59C13.0683 36.99 13.2016 37.3234 13.4682 37.59C13.7349 37.8567 14.0681 37.99 14.4681 37.99H23.0666C23.3333 37.99 23.6332 37.8567 23.9665 37.59C24.2998 37.3234 24.4664 36.99 24.4664 36.59C24.4664 36.19 24.2998 35.8567 23.9665 35.59C23.6332 35.3234 23.3333 35.19 23.0666 35.19H14.4681Z" fill="#1A1A1A"/>
</g>
<defs>
<clipPath id="clip0_2225_1436">
<rect width="60.01" height="60" fill="white" transform="matrix(1 0 0 -1 0.660156 60.1899)"/>
</clipPath>
</defs>
</svg>
