<svg width="46" height="46" viewBox="0 0 46 46" fill="none" xmlns="http://www.w3.org/2000/svg">
<rect x="0.5" y="16" width="30" height="30" rx="15" fill="#E7C873"/>
<g clip-path="url(#clip0_2296_3035)">
<path d="M28.9335 21.2333C28.7001 21.2333 28.5057 21.1556 28.3501 21C27.339 20.0667 26.8724 18.9389 26.9501 17.6167C26.9501 16.6056 27.1835 15.6722 27.6501 14.8167C27.7279 14.5833 27.864 14.4472 28.0585 14.4083C28.2529 14.3694 28.4474 14.4083 28.6418 14.525C28.8362 14.6417 28.9529 14.7972 28.9918 14.9917C29.0307 15.1861 29.0112 15.3611 28.9335 15.5167C28.6224 15.9056 28.4279 16.45 28.3501 17.15C28.1946 18.2389 28.5446 19.1722 29.4001 19.95C29.6335 20.1833 29.6918 20.4556 29.5751 20.7667C29.4585 21.0778 29.2057 21.2333 28.8168 21.2333H28.9335ZM15.9835 24.3833C15.1279 24.3056 14.389 23.9556 13.7668 23.3333C13.0668 22.6333 12.7168 21.7583 12.7168 20.7083C12.7168 19.6583 13.0668 18.7833 13.7668 18.0833L21.1168 10.6167C21.4279 10.3833 21.7001 10.1889 21.9335 10.0333C22.1668 9.87778 22.3807 9.83889 22.5751 9.91667C22.7696 9.99444 22.9057 10.1111 22.9835 10.2667C23.0612 10.4222 23.0807 10.5972 23.0418 10.7917C23.0029 10.9861 22.8862 11.1417 22.6918 11.2583C22.4974 11.375 22.3224 11.5111 22.1668 11.6667L14.8168 19.1333C14.3501 19.5222 14.1168 20.0472 14.1168 20.7083C14.1168 21.3694 14.3501 21.8944 14.8168 22.2833C15.0501 22.5944 15.3612 22.7889 15.7501 22.8667L17.9668 20.65C18.1224 20.4944 18.3168 20.4167 18.5501 20.4167L19.6001 20.65L20.1835 20.0667V18.2C20.1835 18.0444 20.2612 17.8889 20.4168 17.7333C20.5724 17.5778 20.7279 17.5 20.8835 17.5L22.8668 17.3833L25.4335 14.8167L25.6668 14.5833C25.7446 14.4278 25.8807 14.3306 26.0751 14.2917C26.2696 14.2528 26.464 14.2917 26.6585 14.4083C26.8529 14.525 26.9696 14.6806 27.0085 14.875C27.0474 15.0694 26.989 15.2444 26.8335 15.4L26.4835 15.8667L23.6835 18.6667C23.5279 18.8222 23.3724 18.9 23.2168 18.9H21.7001V20.4167C21.7001 20.65 21.6224 20.8056 21.4668 20.8833L20.4168 22.05C20.2612 22.2056 20.0668 22.2444 19.8335 22.1667L18.7835 22.05L16.5668 24.2667C16.4112 24.3444 16.2168 24.3833 15.9835 24.3833ZM29.1668 15.9833C27.7668 15.9833 26.464 15.6722 25.2585 15.05C24.0529 14.4278 23.0612 13.5528 22.2835 12.425C21.5057 11.2972 21.0585 10.0333 20.9418 8.63333C20.8251 7.23333 21.039 5.91111 21.5835 4.66667C22.1279 3.42222 22.9446 2.39167 24.0335 1.575C25.1224 0.758333 26.3668 0.233333 27.7668 -1.49012e-07C28.0001 -0.0777779 28.214 -1.49012e-07 28.4085 0.233333C28.6029 0.466667 28.6612 0.719444 28.5835 0.991667C28.5057 1.26389 28.3112 1.43889 28.0001 1.51667C26.289 1.75 24.9085 2.56667 23.8585 3.96667C22.8085 5.36667 22.4001 6.94167 22.6335 8.69167C22.8668 10.4417 23.6446 11.8611 24.9668 12.95C26.289 14.0389 27.8057 14.5444 29.5168 14.4667C31.2279 14.3889 32.6862 13.7083 33.8918 12.425C35.0974 11.1417 35.7001 9.64444 35.7001 7.93333C35.7001 6.84444 35.4668 5.83333 35.0001 4.9C34.5335 3.96667 33.8335 3.18889 32.9001 2.56667C32.7446 2.41111 32.6668 2.23611 32.6668 2.04167C32.6668 1.84722 32.7251 1.67222 32.8418 1.51667C32.9585 1.36111 33.114 1.26389 33.3085 1.225C33.5029 1.18611 33.6779 1.24444 33.8335 1.4C35.2335 2.41111 36.2251 3.73333 36.8085 5.36667C37.3918 7 37.4112 8.65278 36.8668 10.325C36.3224 11.9972 35.3501 13.3583 33.9501 14.4083C32.5501 15.4583 30.9557 15.9833 29.1668 15.9833ZM30.8001 1.51667C30.7224 1.51667 30.6251 1.49722 30.5085 1.45833C30.3918 1.41944 30.2751 1.32222 30.1585 1.16667C30.0418 1.01111 30.0029 0.816667 30.0418 0.583333C30.0807 0.35 30.2362 0.175 30.5085 0.0583332C30.7807 -0.0583335 31.0335 -0.0194446 31.2668 0.175C31.5001 0.369444 31.5779 0.583333 31.5001 0.816667C31.4224 1.05 31.3251 1.225 31.2085 1.34167C31.0918 1.45833 30.9168 1.51667 30.6835 1.51667H30.8001ZM30.2168 9.33333C29.3612 9.33333 28.6612 9.06111 28.1168 8.51667C27.5724 7.97222 27.3001 7.29167 27.3001 6.475C27.3001 5.65833 27.5724 4.95833 28.1168 4.375C28.6612 3.79167 29.3418 3.5 30.1585 3.5C30.9751 3.5 31.6751 3.79167 32.2585 4.375C32.8418 4.95833 33.1335 5.65833 33.1335 6.475C33.1335 7.29167 32.8418 7.97222 32.2585 8.51667C31.6751 9.06111 30.9946 9.33333 30.2168 9.33333ZM30.2168 5.01667C29.8279 5.01667 29.4779 5.15278 29.1668 5.425C28.8557 5.69722 28.7001 6.02778 28.7001 6.41667C28.7001 6.80556 28.8557 7.15556 29.1668 7.46667C29.4779 7.77778 29.8279 7.93333 30.2168 7.93333C30.6057 7.93333 30.9362 7.77778 31.2085 7.46667C31.4807 7.15556 31.6168 6.80556 31.6168 6.41667C31.6168 6.02778 31.4807 5.69722 31.2085 5.425C30.9362 5.15278 30.6057 5.01667 30.2168 5.01667ZM39.6668 35C39.5112 35 39.3557 34.9222 39.2001 34.7667C39.0446 34.6111 38.9668 34.4556 38.9668 34.3V26.0167V25.6667C38.889 25.4333 38.9279 25.2194 39.0835 25.025C39.239 24.8306 39.4335 24.7722 39.6668 24.85H40.4835L32.6668 18.4333L24.7335 24.7333H25.5501C25.8612 24.7333 26.0751 24.8306 26.1918 25.025C26.3085 25.2194 26.3668 25.4333 26.3668 25.6667L26.2501 26.0167V34.3C26.2501 34.4556 26.1918 34.6111 26.0751 34.7667C25.9585 34.9222 25.7835 35 25.5501 35C25.3168 35 25.1418 34.9222 25.0251 34.7667C24.9085 34.6111 24.8501 34.4556 24.8501 34.3V26.25H22.6335C22.3224 26.25 22.1085 26.0944 21.9918 25.7833C21.8751 25.4722 21.9335 25.2 22.1668 24.9667L32.2001 16.9167C32.2779 16.8389 32.414 16.8 32.6085 16.8C32.8029 16.8 32.9779 16.8389 33.1335 16.9167L43.0501 24.9667C43.2835 25.2 43.3418 25.4722 43.2251 25.7833C43.1085 26.0944 42.8946 26.25 42.5835 26.25H40.4835V34.3C40.4835 34.4556 40.4057 34.6111 40.2501 34.7667C40.0946 34.9222 39.9001 35 39.6668 35ZM32.6668 23.45C32.5112 23.45 32.3557 23.3722 32.2001 23.2167C32.0446 23.0611 31.9668 22.8861 31.9668 22.6917C31.9668 22.4972 32.0446 22.3222 32.2001 22.1667C34.8446 19.8333 36.0501 17.4611 35.8168 15.05C35.5835 13.1056 34.5335 11.2 32.6668 9.33333C31.7335 8.4 30.8001 7.66111 29.8668 7.11667C29.5557 6.96111 29.4001 6.72778 29.4001 6.41667C29.4001 6.10556 29.5362 5.89167 29.8085 5.775C30.0807 5.65833 30.3335 5.67778 30.5668 5.83333C31.6557 6.45556 32.7057 7.31111 33.7168 8.4C35.8168 10.5 36.9835 12.6389 37.2168 14.8167C37.5279 17.7722 36.1668 20.6111 33.1335 23.3333C33.0557 23.4111 32.9001 23.45 32.6668 23.45ZM34.5335 34.7667C34.3779 34.7667 34.2224 34.7083 34.0668 34.5917C33.9112 34.475 33.8335 34.3 33.8335 34.0667V29.6333C33.8335 29.3222 33.7362 29.0694 33.5418 28.875C33.3474 28.6806 33.0946 28.5833 32.7835 28.5833H31.9668C31.6557 28.5833 31.4029 28.6806 31.2085 28.875C31.014 29.0694 30.9168 29.3222 30.9168 29.6333V34.0667C30.9168 34.3 30.839 34.475 30.6835 34.5917C30.5279 34.7083 30.3529 34.7667 30.1585 34.7667C29.964 34.7667 29.789 34.7083 29.6335 34.5917C29.4779 34.475 29.4001 34.3 29.4001 34.0667V29.6333C29.4001 28.9333 29.6529 28.3306 30.1585 27.825C30.664 27.3194 31.2668 27.0667 31.9668 27.0667H32.7835C33.4835 27.0667 34.0862 27.3194 34.5918 27.825C35.0974 28.3306 35.3112 28.9333 35.2335 29.6333V34.0667C35.3112 34.3 35.2724 34.475 35.1168 34.5917C34.9612 34.7083 34.7668 34.7667 34.5335 34.7667Z" fill="#1A1A1A"/>
</g>
<defs>
<clipPath id="clip0_2296_3035">
<rect width="35" height="35" fill="white" transform="matrix(1 0 0 -1 10.5 35)"/>
</clipPath>
</defs>
</svg>
