<svg width="46" height="47" viewBox="0 0 46 47" fill="none" xmlns="http://www.w3.org/2000/svg">
<rect x="0.5" y="16.8101" width="30" height="30" rx="15" fill="#E7C873"/>
<g clip-path="url(#clip0_2296_3034)">
<path d="M23.8 22.7432C23.8 22.9766 23.8778 23.1516 24.0333 23.2682C24.1889 23.3849 24.3444 23.4432 24.5 23.4432C24.6556 23.4432 24.8111 23.3849 24.9667 23.2682C25.1222 23.1516 25.2 22.996 25.2 22.8016C25.2 22.6071 25.1222 22.4516 24.9667 22.3349C24.8111 22.2182 24.6556 22.1599 24.5 22.1599C24.3444 22.1599 24.1889 22.2182 24.0333 22.3349C23.8778 22.4516 23.8 22.5877 23.8 22.7432ZM27.3 22.7432C27.3 22.9766 27.3778 23.1516 27.5333 23.2682C27.6889 23.3849 27.8444 23.4432 28 23.4432C28.1556 23.4432 28.3111 23.3849 28.4667 23.2682C28.6222 23.1516 28.7 22.996 28.7 22.8016C28.7 22.6071 28.6222 22.4516 28.4667 22.3349C28.3111 22.2182 28.1556 22.1599 28 22.1599C27.8444 22.1599 27.6889 22.2182 27.5333 22.3349C27.3778 22.4516 27.3 22.5877 27.3 22.7432ZM30.8 22.7432C30.8 22.9766 30.8778 23.1516 31.0333 23.2682C31.1889 23.3849 31.3444 23.4432 31.5 23.4432C31.6556 23.4432 31.8111 23.3849 31.9667 23.2682C32.1222 23.1516 32.2 22.996 32.2 22.8016C32.2 22.6071 32.1222 22.4516 31.9667 22.3349C31.8111 22.2182 31.6556 22.1599 31.5 22.1599C31.3444 22.1599 31.1889 22.2182 31.0333 22.3349C30.8778 22.4516 30.8 22.5877 30.8 22.7432ZM17.0333 23.4432C16.1 23.4432 15.2444 23.1905 14.4667 22.6849C13.6889 22.1793 13.125 21.4988 12.775 20.6432C12.425 19.7877 12.3472 18.8932 12.5417 17.9599C12.7361 17.0266 13.1639 16.2293 13.825 15.5682C14.4861 14.9071 15.2639 14.4988 16.1583 14.3432C17.0528 14.1877 17.9278 14.2849 18.7833 14.6349C19.6389 14.9849 20.3389 15.5488 20.8833 16.3266C21.4278 17.1043 21.7 17.9599 21.7 18.8932C21.7 20.1377 21.2528 21.2071 20.3583 22.1016C19.4639 22.996 18.3556 23.4432 17.0333 23.4432ZM17.0333 15.6266C16.4111 15.6266 15.8278 15.8016 15.2833 16.1516C14.7389 16.5016 14.3306 16.9877 14.0583 17.6099C13.7861 18.2321 13.7278 18.8738 13.8833 19.5349C14.0389 20.196 14.35 20.7405 14.8167 21.1682C15.2833 21.596 15.8278 21.8877 16.45 22.0432C17.0722 22.1988 17.6944 22.1405 18.3167 21.8682C18.9389 21.596 19.425 21.1877 19.775 20.6432C20.125 20.0988 20.3 19.5155 20.3 18.8932C20.3 17.9599 19.9889 17.1821 19.3667 16.5599C18.7444 15.9377 17.9667 15.6266 17.0333 15.6266ZM22.9833 31.7266H11.2C10.9667 31.7266 10.7917 31.6682 10.675 31.5516C10.5583 31.4349 10.5 31.2599 10.5 31.0266V28.6932C10.5 26.9043 11.1417 25.3682 12.425 24.0849C13.7083 22.8016 15.2639 22.1599 17.0917 22.1599C18.9194 22.1599 20.4556 22.8016 21.7 24.0849C22.9444 25.3682 23.6056 26.9043 23.6833 28.6932V31.0266C23.6833 31.2599 23.6056 31.4349 23.45 31.5516C23.2944 31.6682 23.1389 31.7266 22.9833 31.7266ZM11.9 30.3266H22.2833V28.6932C22.2833 27.2932 21.7778 26.0877 20.7667 25.0766C19.7556 24.0655 18.5306 23.5599 17.0917 23.5599C15.6528 23.5599 14.4278 24.0655 13.4167 25.0766C12.4056 26.0877 11.9 27.2932 11.9 28.6932V30.3266ZM38.9667 23.4432C38.0333 23.4432 37.1778 23.1905 36.4 22.6849C35.6222 22.1793 35.0583 21.4988 34.7083 20.6432C34.3583 19.7877 34.2611 18.8932 34.4167 17.9599C34.5722 17.0266 34.9806 16.2293 35.6417 15.5682C36.3028 14.9071 37.1 14.4988 38.0333 14.3432C38.9667 14.1877 39.8611 14.2849 40.7167 14.6349C41.5722 14.9849 42.2528 15.5488 42.7583 16.3266C43.2639 17.1043 43.5167 17.9599 43.5167 18.8932C43.5167 20.1377 43.0694 21.2071 42.175 22.1016C41.2806 22.996 40.2111 23.4432 38.9667 23.4432ZM38.9667 15.6266C38.2667 15.6266 37.6444 15.8016 37.1 16.1516C36.5556 16.5016 36.1667 16.9877 35.9333 17.6099C35.7 18.2321 35.6417 18.8738 35.7583 19.5349C35.875 20.196 36.1667 20.7405 36.6333 21.1682C37.1 21.596 37.6639 21.8877 38.325 22.0432C38.9861 22.1988 39.6083 22.1405 40.1917 21.8682C40.775 21.596 41.2417 21.1877 41.5917 20.6432C41.9417 20.0988 42.1167 19.5155 42.1167 18.8932C42.1167 17.9599 41.8056 17.1821 41.1833 16.5599C40.5611 15.9377 39.8222 15.6266 38.9667 15.6266ZM44.8 31.7266H33.0167C32.8611 31.7266 32.7056 31.6682 32.55 31.5516C32.3944 31.4349 32.3167 31.2599 32.3167 31.0266V28.6932C32.3944 26.9043 33.0556 25.3682 34.3 24.0849C35.5444 22.8016 37.0806 22.1599 38.9083 22.1599C40.7361 22.1599 42.2917 22.8016 43.575 24.0849C44.8583 25.3682 45.5 26.9043 45.5 28.6932V31.0266C45.5 31.2599 45.4417 31.4349 45.325 31.5516C45.2083 31.6682 45.0333 31.7266 44.8 31.7266ZM33.7167 30.3266H44.1V28.6932C44.1 27.2932 43.5944 26.0877 42.5833 25.0766C41.5722 24.0655 40.3472 23.5599 38.9083 23.5599C37.4694 23.5599 36.2444 24.0655 35.2333 25.0766C34.2222 26.0877 33.7167 27.2932 33.7167 28.6932V30.3266ZM24.85 18.6599C24.6944 18.6599 24.5389 18.6016 24.3833 18.4849C24.2278 18.3682 24.15 18.2321 24.15 18.0766V15.9766H23.5667C22.9444 15.9766 22.4 15.7627 21.9333 15.3349C21.4667 14.9071 21.2333 14.3821 21.2333 13.7599V7.1099C21.2333 6.48767 21.4667 5.96267 21.9333 5.5349C22.4 5.10712 22.9444 4.89323 23.5667 4.89323H32.3167C32.9389 4.89323 33.4639 5.10712 33.8917 5.5349C34.3194 5.96267 34.5333 6.48767 34.5333 7.1099V13.7599C34.5333 14.3821 34.3194 14.9071 33.8917 15.3349C33.4639 15.7627 32.9389 15.9766 32.3167 15.9766H27.8833L25.3167 18.5432C25.2389 18.6988 25.0833 18.7377 24.85 18.6599ZM23.5667 6.29323C23.3333 6.29323 23.1194 6.37101 22.925 6.52656C22.7306 6.68212 22.6333 6.87656 22.6333 7.1099V13.7599C22.6333 13.9932 22.7306 14.2071 22.925 14.4016C23.1194 14.596 23.3333 14.6932 23.5667 14.6932H24.85C25.0833 14.6932 25.2583 14.7516 25.375 14.8682C25.4917 14.9849 25.55 15.121 25.55 15.2766V16.3266L27.0667 14.8099C27.2222 14.7321 27.3778 14.6932 27.5333 14.6932H32.3167C32.55 14.6932 32.7639 14.596 32.9583 14.4016C33.1528 14.2071 33.25 13.9932 33.25 13.7599V7.1099C33.25 6.87656 33.1528 6.68212 32.9583 6.52656C32.7639 6.37101 32.55 6.29323 32.3167 6.29323H23.5667Z" fill="#1A1A1A"/>
</g>
<defs>
<clipPath id="clip0_2296_3034">
<rect width="35" height="35" fill="white" transform="matrix(1 0 0 -1 10.5 35.8101)"/>
</clipPath>
</defs>
</svg>
