<svg width="64" height="92" viewBox="0 0 64 92" fill="none" xmlns="http://www.w3.org/2000/svg">
<path d="M12.2274 39.3616L11.9376 39.7809L12.1067 40.2618C17.2257 54.8205 25.4934 66.7665 35.6449 74.2935L36.4754 74.9093L37.0632 74.0587L44.8051 62.8551C45.5475 61.7806 46.4491 61.6236 47.1274 61.9601L47.1339 61.9634L47.1405 61.9665C51.2089 63.9116 55.6138 64.9671 60.1348 64.9671C60.6782 64.9671 61.2842 65.2889 61.7974 66.0316C62.3068 66.7687 62.6538 67.8383 62.6538 69.0597V86.8329C62.6538 88.0543 62.3068 89.1238 61.7974 89.861C61.2842 90.6037 60.6782 90.9254 60.1348 90.9254C44.0346 90.9254 29.3531 81.4851 18.6543 66.0022C7.95817 50.5233 1.31116 29.0839 1.31116 5.35138C1.31116 4.12994 1.65817 3.06039 2.16757 2.32323C2.68076 1.58055 3.2868 1.25879 3.83019 1.25879H16.1468C16.6902 1.25879 17.2963 1.58055 17.8095 2.32323C18.3188 3.06039 18.6659 4.12994 18.6659 5.35138C18.6659 11.7885 19.3773 17.9725 20.6956 23.7491C21.0336 25.3116 20.7686 27.0011 19.9693 28.1579L12.2274 39.3616Z" fill="white" stroke="#032E2E" stroke-width="2"/>
</svg>
