<svg width="166" height="166" viewBox="0 0 166 166" fill="none" xmlns="http://www.w3.org/2000/svg">
<path d="M96.7778 99.5172C96.7778 99.1852 96.7778 98.8532 96.6948 98.5212C96.7778 95.2012 94.6198 92.1302 91.3828 91.2172C90.2208 90.7192 88.8928 90.3872 87.5648 90.3872H69.3048L70.7158 65.2382H96.9438C100.264 65.2382 103.003 62.5822 103.003 59.1792C103.003 55.8592 100.264 53.1202 96.9438 53.1202H71.3798L71.5458 50.1322C71.9608 43.3262 66.7318 37.5162 59.9258 37.1012C53.1198 36.6862 47.3098 41.9152 46.8948 48.7212L44.3218 94.8692C44.1558 98.5212 45.5668 101.841 47.8908 104.248C49.5508 106.821 52.3728 108.564 55.6928 108.564H79.3478L72.2098 142.677C71.3798 146.744 73.9528 150.645 77.9368 151.558C81.9208 152.471 85.9048 149.815 86.8178 145.831L95.7818 103.75C96.4458 102.505 96.7778 101.011 96.7778 99.5172Z" fill="#E7C873"/>
<path d="M66.3999 110.722H38.5949L36.9349 98.6038C39.1759 97.5248 40.5039 95.1178 40.1719 92.5448L35.5239 58.5148C35.1089 55.2778 32.1209 53.0368 28.8839 53.4518C25.6469 53.8668 23.4059 56.8548 23.8209 60.0918L28.4689 94.1218C28.7179 96.2798 30.1289 97.9398 31.9549 98.6868L33.6149 110.722C31.7059 111.054 30.2949 112.631 30.2949 114.623C30.2949 116.781 32.0379 118.524 34.1959 118.524H42.9939V132.053H56.6059V118.607H66.3999C68.5579 118.607 70.3839 116.864 70.3839 114.706C70.3839 112.548 68.5579 110.722 66.3999 110.722ZM56.6889 145.748H53.7009V132.634H46.7289V145.831H43.3259C37.1839 145.831 32.2039 149.4 32.2039 153.799H67.7279C67.8109 149.317 62.8309 145.748 56.6889 145.748ZM78.2689 76.2768H103.003V145.665H96.7779V152.886H119.271V145.665H112.631V76.2768H134.045V67.8108H78.2689V76.2768ZM147.74 27.6388C146.578 27.2238 145.167 28.1368 144.586 29.7968L132.634 61.6688H104.995C103.75 61.6688 102.671 62.6648 102.671 63.9928C102.671 65.2378 103.667 66.3168 104.995 66.3168H133.464C134.626 66.6488 135.954 65.7358 136.535 64.1588L148.819 31.4568C149.317 29.7968 148.902 28.1368 147.74 27.6388ZM64.2419 34.1958C71.9609 34.1958 78.1859 28.3028 78.1859 20.9988C78.1859 13.6948 71.9609 7.80176 64.2419 7.80176C56.5229 7.80176 50.2979 13.6948 50.2979 20.9988C50.2979 28.3028 56.5229 34.1958 64.2419 34.1958Z" fill="#032E2E"/>
</svg>
